<svg width="34" height="34" viewBox="0 0 34 34" fill="none" xmlns="http://www.w3.org/2000/svg"><path fill-rule="evenodd" clip-rule="evenodd" d="M16.8443 32.889C14.7824 32.889 12.8372 32.5386 10.9544 31.7833C9.68135 32.3578 8.30872 32.6216 6.88337 32.6216C5.14517 32.6216 3.40703 32.1536 1.86939 31.2845C1.4014 31.0171 1.20089 30.4154 1.53511 29.8806C1.67292 29.6394 1.89948 29.4693 2.15992 29.4067C3.18756 28.9183 4.09225 28.2292 4.84256 27.371C2.36864 24.4727 1 20.8679 1 16.978C1 16.3095 1.06686 15.6409 1.13371 15.0392L1.1339 15.0381C1.2007 14.6373 1.26749 14.2366 1.33428 13.769C2.73827 6.34826 9.28988 1 16.8443 1C25.602 1 32.7554 8.15332 32.7554 16.9111C32.7554 25.7357 25.6689 32.889 16.8443 32.889ZM6.61621 26.3901C4.24454 23.8168 2.93877 20.4596 2.93877 16.978C2.93877 16.3763 3.00562 15.8416 3.07246 15.3068L3.07249 15.3066C3.07249 14.9724 3.13934 14.5713 3.2062 14.237C4.47641 7.75218 10.2258 3.07249 16.8443 3.07249C24.5324 3.07249 30.7497 9.28969 30.7497 16.9779C30.7497 24.666 24.5324 30.8834 16.8443 30.8834C14.9952 30.8834 13.2677 30.5185 11.6039 29.8467C11.3118 29.6114 10.9206 29.5575 10.5898 29.7307C10.5061 29.7603 10.427 29.8007 10.355 29.8516C9.27915 30.3796 8.14423 30.6159 6.95023 30.6159C6.18118 30.6159 5.41214 30.5156 4.67606 30.304C5.49898 29.6963 6.22829 28.9555 6.85193 28.1057C6.86245 28.0959 6.87285 28.0859 6.88311 28.0757C7.02284 27.9359 7.1139 27.7719 7.15628 27.6004C7.28922 27.1909 7.12967 26.7427 6.74936 26.471C6.70602 26.4401 6.66153 26.4131 6.61621 26.3901Z" fill="white"/><path d="M10.9544 31.7833L11.0474 31.5513L10.9486 31.5116L10.8515 31.5554L10.9544 31.7833ZM1.86939 31.2845L1.74535 31.5016L1.74638 31.5022L1.86939 31.2845ZM1.53511 29.8806L1.74728 30.0132L1.75217 30.0046L1.53511 29.8806ZM2.15992 29.4067L2.2183 29.6498L2.24367 29.6437L2.26725 29.6325L2.15992 29.4067ZM4.84256 27.371L5.03078 27.5355L5.17292 27.3729L5.03271 27.2087L4.84256 27.371ZM1.13371 15.0392L0.886746 14.9981L0.885242 15.0116L1.13371 15.0392ZM1.1339 15.0381L0.887303 14.997L0.8873 14.997L1.1339 15.0381ZM1.33428 13.769L1.08839 13.7225L1.08679 13.7337L1.33428 13.769ZM6.61621 26.3901L6.43238 26.5595L6.46284 26.5926L6.50292 26.6129L6.61621 26.3901ZM3.07249 15.3066L3.32056 15.3377L3.32249 15.3222V15.3066H3.07249ZM3.2062 14.237L3.45135 14.286L3.45154 14.2851L3.2062 14.237ZM11.6039 29.8467L11.447 30.0414L11.4759 30.0647L11.5103 30.0786L11.6039 29.8467ZM10.5898 29.7307L10.6732 29.9664L10.69 29.9605L10.7058 29.9522L10.5898 29.7307ZM10.355 29.8516L10.4652 30.076L10.483 30.0672L10.4992 30.0558L10.355 29.8516ZM4.67606 30.304L4.52754 30.1029L4.1196 30.4042L4.60699 30.5443L4.67606 30.304ZM6.85193 28.1057L6.6821 27.9222L6.66454 27.9385L6.65038 27.9578L6.85193 28.1057ZM6.88311 28.0757L6.70634 27.8989L6.70633 27.8989L6.88311 28.0757ZM7.15628 27.6004L6.9185 27.5233L6.91574 27.5318L6.91359 27.5404L7.15628 27.6004ZM6.74936 26.471L6.60405 26.6745L6.60405 26.6745L6.74936 26.471ZM10.8613 32.0153C12.7759 32.7834 14.7529 33.139 16.8443 33.139V32.639C14.8119 32.639 12.8986 32.2938 11.0474 31.5513L10.8613 32.0153ZM6.88337 32.8716C8.3399 32.8716 9.74818 32.6019 11.0572 32.0111L10.8515 31.5554C9.61453 32.1137 8.27755 32.3716 6.88337 32.3716V32.8716ZM1.74638 31.5022C3.32033 32.3918 5.10069 32.8716 6.88337 32.8716V32.3716C5.18964 32.3716 3.49372 31.9154 1.9924 31.0669L1.74638 31.5022ZM1.3231 29.7481C0.910116 30.409 1.16003 31.1671 1.74536 31.5016L1.99343 31.0674C1.64277 30.8671 1.49166 30.4219 1.74712 30.0131L1.3231 29.7481ZM2.10155 29.1636C1.77267 29.2426 1.48936 29.4568 1.31805 29.7566L1.75217 30.0046C1.85648 29.8221 2.0263 29.6959 2.2183 29.6498L2.10155 29.1636ZM2.26725 29.6325C3.32622 29.1292 4.25831 28.4191 5.03078 27.5355L4.65435 27.2064C3.92618 28.0394 3.0489 28.7074 2.0526 29.1809L2.26725 29.6325ZM0.75 16.978C0.75 20.9285 2.14058 24.5906 4.65241 27.5333L5.03271 27.2087C2.5967 24.3548 1.25 20.8073 1.25 16.978H0.75ZM0.885242 15.0116C0.81831 15.614 0.75 16.2945 0.75 16.978H1.25C1.25 16.3245 1.3154 15.6679 1.38218 15.0668L0.885242 15.0116ZM0.8873 14.997L0.887111 14.9981L1.38031 15.0803L1.3805 15.0792L0.8873 14.997ZM1.08679 13.7337C1.02046 14.198 0.954121 14.5961 0.887303 14.997L1.3805 15.0792C1.44727 14.6786 1.51451 14.2752 1.58177 13.8044L1.08679 13.7337ZM16.8443 0.75C9.17163 0.75 2.51531 6.18188 1.08864 13.7225L1.57992 13.8155C2.96122 6.51464 9.40814 1.25 16.8443 1.25V0.75ZM33.0054 16.9111C33.0054 8.01525 25.7401 0.75 16.8443 0.75V1.25C25.464 1.25 32.5054 8.29139 32.5054 16.9111H33.0054ZM16.8443 33.139C25.8083 33.139 33.0054 25.8724 33.0054 16.9111H32.5054C32.5054 25.599 25.5295 32.639 16.8443 32.639V33.139ZM6.80004 26.2207C4.47099 23.6936 3.18877 20.3969 3.18877 16.978H2.68877C2.68877 20.5223 4.0181 23.94 6.43238 26.5595L6.80004 26.2207ZM3.18877 16.978C3.18877 16.3941 3.25352 15.8739 3.32053 15.3378L2.8244 15.2758C2.75771 15.8093 2.68877 16.3586 2.68877 16.978H3.18877ZM3.32053 15.3378L3.32056 15.3377L2.82442 15.2756L2.8244 15.2758L3.32053 15.3378ZM3.32249 15.3066C3.32249 14.9989 3.38485 14.6185 3.45134 14.286L2.96105 14.188C2.89384 14.5241 2.82249 14.9459 2.82249 15.3066H3.32249ZM3.45154 14.2851C4.69848 7.91904 10.3438 3.32249 16.8443 3.32249V2.82249C10.1078 2.82249 4.25434 7.58533 2.96086 14.189L3.45154 14.2851ZM16.8443 3.32249C24.3943 3.32249 30.4997 9.42777 30.4997 16.9779H30.9997C30.9997 9.15162 24.6705 2.82249 16.8443 2.82249V3.32249ZM30.4997 16.9779C30.4997 24.528 24.3943 30.6334 16.8443 30.6334V31.1334C24.6705 31.1334 30.9997 24.8041 30.9997 16.9779H30.4997ZM16.8443 30.6334C15.0294 30.6334 13.3337 30.2755 11.6974 29.6149L11.5103 30.0786C13.2017 30.7614 14.9609 31.1334 16.8443 31.1334V30.6334ZM11.7607 29.6521C11.3982 29.36 10.9005 29.2858 10.4739 29.5092L10.7058 29.9522C10.9406 29.8292 11.2253 29.8628 11.447 30.0414L11.7607 29.6521ZM10.5065 29.495C10.402 29.5319 10.3023 29.5827 10.2108 29.6474L10.4992 30.0558C10.5518 30.0187 10.6102 29.9887 10.6732 29.9664L10.5065 29.495ZM10.2449 29.6271C9.20664 30.1367 8.10996 30.3659 6.95023 30.3659V30.8659C8.1785 30.8659 9.35167 30.6225 10.4652 30.076L10.2449 29.6271ZM6.95023 30.3659C6.20272 30.3659 5.45706 30.2684 4.74513 30.0638L4.60699 30.5443C5.36721 30.7629 6.15964 30.8659 6.95023 30.8659V30.3659ZM6.65038 27.9578C6.04077 28.7884 5.32905 29.511 4.52754 30.1029L4.82458 30.5051C5.6689 29.8816 6.41582 29.1225 7.05348 28.2536L6.65038 27.9578ZM7.02176 28.2891C7.03465 28.2772 7.04736 28.265 7.05989 28.2524L6.70633 27.8989C6.69833 27.9069 6.69026 27.9147 6.6821 27.9222L7.02176 28.2891ZM7.05989 28.2524C7.23083 28.0815 7.34533 27.8774 7.39898 27.6604L6.91359 27.5404C6.88246 27.6663 6.81485 27.7904 6.70634 27.8989L7.05989 28.2524ZM6.60405 26.6745C6.90467 26.8892 7.01447 27.2276 6.9185 27.5233L7.39407 27.6776C7.56398 27.1542 7.35466 26.5962 6.89467 26.2676L6.60405 26.6745ZM6.50292 26.6129C6.53696 26.6303 6.57075 26.6507 6.60405 26.6745L6.89467 26.2676C6.84128 26.2295 6.7861 26.196 6.7295 26.1672L6.50292 26.6129Z" fill="white"/><path d="M16.8446 18.783C17.8784 18.783 18.7165 17.9449 18.7165 16.9111C18.7165 15.8772 17.8784 15.0392 16.8446 15.0392C15.8107 15.0392 14.9727 15.8772 14.9727 16.9111C14.9727 17.9449 15.8107 18.783 16.8446 18.783Z" fill="white" stroke="white" stroke-width="0.5"/><path d="M23.9974 18.783C25.0312 18.783 25.8693 17.9449 25.8693 16.9111C25.8693 15.8772 25.0312 15.0392 23.9974 15.0392C22.9636 15.0392 22.1255 15.8772 22.1255 16.9111C22.1255 17.9449 22.9636 18.783 23.9974 18.783Z" fill="white" stroke="white" stroke-width="0.5"/><path d="M9.62436 18.783C10.6582 18.783 11.4963 17.9449 11.4963 16.9111C11.4963 15.8772 10.6582 15.0392 9.62436 15.0392C8.59053 15.0392 7.75244 15.8772 7.75244 16.9111C7.75244 17.9449 8.59053 18.783 9.62436 18.783Z" fill="white" stroke="white" stroke-width="0.5"/></svg>